<svg xmlns="http://www.w3.org/2000/svg" viewBox="0 0 24 24" fill="#7a2f00">
  <path d="M12 0C5.373 0 0 5.373 0 12s5.373 12 12 12 12-5.373 12-12S18.627 0 12 0zm4.521 11.8h-3.894c.164-1.074.703-2.108 1.517-2.893.815.785 1.353 1.82 1.517 2.893h.86zm-3.894-2.893c-.815.785-1.353 1.82-1.517 2.893h-3.894v-.86c.164-1.074.703-2.108 1.517-2.893h3.894v.86zm0 4.786h3.894c-.164 1.074-.703 2.108-1.517 2.893h-3.894v-.86c.164 1.074.703 2.108 1.517 2.893zm0-2.893h-3.894c-.814-.785-1.353-1.82-1.517-2.893h3.894v2.893zm2.138 2.893h3.894v.86c-.164 1.074-.703 2.108-1.517 2.893h-3.894c.815-.785 1.353-1.82 1.517-2.893zm0 2.893c.815.785 1.353 1.82 1.517 2.893h-3.894c-.814-.785-1.353-1.82-1.517-2.893h3.894zm-.86-4.786h3.894c-.164-1.074-.703-2.108-1.517-2.893h3.894v.86c.164-1.074.703-2.108 1.517-2.893H12v2.893h.765zm3.894 0h3.894v-.86c-.164-1.074-.703-2.108-1.517-2.893h3.894c.815.785 1.353 1.82 1.517 2.893v.86z"/>
</svg>