<svg xmlns="http://www.w3.org/2000/svg" viewBox="0 0 24 24" fill="#7a2f00">
  <path d="M17.472 14.382c-.297-.149-1.758-.867-2.03-.967-.273-.099-.471-.148-.67.15-.197.297-.767.966-.94 1.164-.173.199-.347.223-.644.075-.297-.15-1.255-.463-2.39-1.475-.883-.788-1.48-1.761-1.653-2.059-.173-.297-.018-.458.13-.606.134-.133.298-.347.446-.52.149-.174.198-.298.298-.497.099-.198.05-.371-.025-.52-.075-.149-.669-1.612-.916-2.207-.242-.579-.487-.5-.67-.51-.173-.008-.371-.01-.57-.01-.198 0-.52.074-.792.372-.272.297-1.04 1.016-1.04 2.479 0 1.462 1.065 2.875 1.213 3.074.149.198 2.096 3.2 5.076 4.487.709.306 1.262.489 1.694.625.712.227 1.36.195 1.871.118.571-.085 1.758-.719 2.006-1.413.248-.694.248-1.289.173-1.413-.074-.124-.272-.198-.57-.347m-5.421-7.403h-.004c-1.025 0-2.04-.312-2.922-.902-1.946-1.322-3.213-3.655-3.213-6.205 0-4.002 3.262-7.26 7.27-7.26 1.947 0 3.773.756 5.145 2.123 1.372 1.366 2.129 3.189 2.129 5.133 0 4.002-3.262 7.261-7.27 7.261m5.14-17.97C19.422.663 15.701 0 12.001 0 5.495 0 .16 5.334.16 11.844c0 2.096.547 4.142 1.595 5.948L0 24l6.477-1.688c1.722.922 3.646 1.408 5.596 1.408 6.507 0 11.844-5.335 11.844-11.844 0-3.172-1.232-6.153-3.473-8.376"/>
</svg>